<svg width="48" height="48" viewBox="0 0 48 48" fill="none" xmlns="http://www.w3.org/2000/svg">
<g id="icon/places/pool_24px">
<path id="icon/places/pool_24px_2" fill-rule="evenodd" clip-rule="evenodd" d="M20 16.0001L13.5 22.5001C14.0592 22.7166 14.5208 22.9819 14.9141 23.2079L15.04 23.2801C15.78 23.7401 16.22 24.0001 17.34 24.0001C18.46 24.0001 18.9 23.7401 19.64 23.2801L19.6653 23.2653C20.5827 22.7267 21.8203 22.0001 24.02 22.0001C26.24 22.0001 27.48 22.7401 28.38 23.2801L28.4016 23.293C29.129 23.7256 29.5907 24.0001 30.68 24.0001C31.78 24.0001 32.24 23.7401 32.98 23.2801C33.22 23.1401 33.5 22.9801 33.8 22.8201L20.96 10.0001C17.86 6.90013 15 5.98013 10 6.00013V11.0001C13.64 10.9801 15.78 11.7801 18 14.0001L20 16.0001ZM12.9784 31.7073C12.251 31.2747 11.7893 31.0001 10.7 31.0001C9.6 31.0001 9.14 31.2601 8.4 31.7201L8.3414 31.7538C7.40839 32.2904 6.17417 33.0001 4 33.0001V29.0001C5.12 29.0001 5.56 28.7401 6.3 28.2801C7.2 27.7401 8.44 27.0001 10.66 27.0001C12.88 27.0001 14.12 27.7401 15.02 28.2801L15.0416 28.293C15.769 28.7256 16.2307 29.0001 17.32 29.0001C18.44 29.0001 18.88 28.7401 19.62 28.2801C20.52 27.7401 21.76 27.0001 23.98 27.0001C26.2 27.0001 27.44 27.7401 28.34 28.2801L28.3616 28.293C29.089 28.7256 29.5507 29.0001 30.64 29.0001C31.74 29.0001 32.2 28.7401 32.94 28.2801C33.84 27.7401 35.08 27.0001 37.3 27.0001C39.52 27.0001 40.76 27.7401 41.66 28.2801L41.6816 28.293C42.409 28.7256 42.8707 29.0001 43.96 29.0001V33.0001C41.76 32.9801 40.54 32.2601 39.64 31.7201L39.6184 31.7073C38.891 31.2747 38.4293 31.0001 37.34 31.0001C36.22 31.0001 35.78 31.2601 35.04 31.7201C34.14 32.2601 32.9 33.0001 30.68 33.0001C28.46 33.0001 27.22 32.2601 26.32 31.7201L26.2984 31.7073C25.571 31.2747 25.1093 31.0001 24.02 31.0001C22.9 31.0001 22.46 31.2601 21.72 31.7201C20.82 32.2601 19.58 33.0001 17.36 33.0001C15.14 33.0001 13.9 32.2601 13 31.7201L12.9784 31.7073ZM37.34 36.0001C35.12 36.0001 33.88 36.7401 32.98 37.2801C32.24 37.7401 31.78 38.0001 30.68 38.0001C29.5907 38.0001 29.129 37.7256 28.4016 37.293L28.38 37.2801C27.48 36.7401 26.24 36.0001 24.02 36.0001C21.8203 36.0001 20.5827 36.7267 19.6653 37.2653L19.64 37.2801C18.9 37.7401 18.46 38.0001 17.34 38.0001C16.22 38.0001 15.78 37.7401 15.04 37.2801C14.14 36.7401 12.9 36.0001 10.68 36.0001C8.48029 36.0001 7.24275 36.7267 6.32531 37.2653L6.3 37.2801C5.56 37.7401 5.12 38.0001 4 38.0001V42.0001C6.1997 42.0001 7.43724 41.2736 8.35468 40.735L8.38 40.7201C9.12 40.2601 9.58 40.0001 10.68 40.0001C11.78 40.0001 12.24 40.2601 12.98 40.7201C13.88 41.2601 15.12 42.0001 17.34 42.0001C19.5397 42.0001 20.7772 41.2736 21.6947 40.735L21.72 40.7201C22.46 40.2601 22.9 40.0001 24.02 40.0001C25.1093 40.0001 25.571 40.2747 26.2984 40.7073L26.32 40.7201C27.22 41.2601 28.46 42.0001 30.68 42.0001C32.8609 42.0001 34.0767 41.2859 34.9911 40.7488L35.04 40.7201C35.78 40.2601 36.22 40.0001 37.34 40.0001C38.4293 40.0001 38.891 40.2747 39.6184 40.7073L39.64 40.7201C40.54 41.2601 41.78 42.0001 44 42.0001V38.0001C42.88 38.0001 42.44 37.7401 41.7 37.2801C40.8 36.7401 39.56 36.0001 37.34 36.0001ZM28 11.0001C28 8.2387 30.2386 6.00013 33 6.00013C35.7614 6.00013 38 8.2387 38 11.0001C38 13.7616 35.7614 16.0001 33 16.0001C30.2386 16.0001 28 13.7616 28 11.0001Z" fill="#4B86F8"/>
</g>
</svg>
