<svg width="48" height="48" viewBox="0 0 48 48" fill="none" xmlns="http://www.w3.org/2000/svg">
<path d="M24.0435 0.179962C10.8149 0.179962 0.0878906 11.0879 0.0878906 24.5445C0.0878906 35.3096 6.95189 44.4426 16.4702 47.6643C17.6674 47.8899 18.1069 47.1358 18.1069 46.4923C18.1069 45.9113 18.0847 43.9919 18.0744 41.956C11.4099 43.4299 10.0037 39.0813 10.0037 39.0813C8.91394 36.265 7.34382 35.5162 7.34382 35.5162C5.17034 34.0039 7.50766 34.035 7.50766 34.035C9.91321 34.2065 11.1799 36.5458 11.1799 36.5458C13.3165 40.2707 16.784 39.1938 18.151 38.5713C18.366 36.9969 18.9868 35.9213 19.6719 35.3132C14.351 34.6971 8.75764 32.6079 8.75764 23.272C8.75764 20.6119 9.69344 18.4383 11.2259 16.7321C10.9771 16.118 10.1572 13.6402 11.4579 10.2841C11.4579 10.2841 13.4696 9.62931 18.0474 12.7816C19.9583 12.2418 22.0076 11.9711 24.0435 11.9618C26.0793 11.9711 28.1302 12.2418 30.0447 12.7816C34.6169 9.62931 36.6258 10.2841 36.6258 10.2841C37.9297 13.6402 37.1094 16.118 36.8606 16.7321C38.3966 18.4383 39.3261 20.6119 39.3261 23.272C39.3261 32.6301 33.722 34.6907 28.3877 35.2938C29.2469 36.05 30.0125 37.5327 30.0125 39.8059C30.0125 43.0656 29.9848 45.6893 29.9848 46.4923C29.9848 47.1406 30.416 47.9004 31.6302 47.6611C41.1434 44.4358 47.9986 35.306 47.9986 24.5445C47.9986 11.0879 37.2732 0.179962 24.0435 0.179962Z" fill="white"/>
<path d="M9.16109 35.1623C9.10833 35.2838 8.92109 35.3197 8.75051 35.2366C8.57676 35.1571 8.47918 34.9921 8.53551 34.8706C8.58708 34.746 8.77471 34.7117 8.94807 34.7944C9.12222 34.8743 9.22139 35.0409 9.16109 35.1623Z" fill="white"/>
<path d="M10.1318 36.263C10.0175 36.3707 9.79419 36.3207 9.64266 36.1504C9.48596 35.9806 9.45661 35.7534 9.57244 35.6441C9.69026 35.5363 9.90685 35.5868 10.0639 35.7566C10.2206 35.9285 10.2512 36.1541 10.1318 36.263Z" fill="white"/>
<path d="M11.0755 37.6662C10.9287 37.7699 10.6887 37.6727 10.5404 37.456C10.3936 37.2394 10.3936 36.9795 10.5435 36.8754C10.6923 36.7713 10.9287 36.865 11.0791 37.08C11.2254 37.2999 11.2254 37.5601 11.0755 37.6662Z" fill="white"/>
<path d="M12.3698 39.0219C12.2385 39.1692 11.9588 39.1297 11.7541 38.9287C11.5446 38.7322 11.4863 38.4534 11.618 38.3062C11.7509 38.1585 12.0322 38.2001 12.2385 38.3994C12.4463 38.5955 12.5098 38.8763 12.3698 39.0219Z" fill="white"/>
<path d="M14.1554 39.8091C14.0975 40 13.8281 40.0867 13.5568 40.0056C13.2858 39.9221 13.1085 39.6986 13.1632 39.5057C13.2196 39.3137 13.4901 39.2233 13.7634 39.31C14.034 39.3932 14.2117 39.6151 14.1554 39.8091Z" fill="white"/>
<path d="M16.1154 39.9552C16.1221 40.1561 15.892 40.3227 15.6072 40.3259C15.3208 40.3328 15.0891 40.1702 15.0859 39.9725C15.0859 39.7696 15.3109 39.6045 15.5973 39.5997C15.8821 39.594 16.1154 39.7554 16.1154 39.9552Z" fill="white"/>
<path d="M17.9403 39.6392C17.9744 39.8353 17.7765 40.0367 17.4936 40.0899C17.2156 40.142 16.9581 40.0209 16.9228 39.8265C16.8883 39.6255 17.0898 39.4242 17.3675 39.3721C17.6507 39.3221 17.9042 39.4399 17.9403 39.6392Z" fill="white"/>
</svg>
