<svg width="48" height="48" viewBox="0 0 48 48" fill="none" xmlns="http://www.w3.org/2000/svg">
<g id="icon/social/domain_24px">
<path id="icon/social/domain_24px_2" fill-rule="evenodd" clip-rule="evenodd" d="M24 6V14H44V42H4V6H24ZM7.99999 38H12V34H7.99999V38ZM12 30H7.99999V26H12V30ZM7.99999 22H12V18H7.99999V22ZM12 14H7.99999V10H12V14ZM16 38H20V34H16V38ZM20 30H16V26H20V30ZM16 22H20V18H16V22ZM20 14H16V10H20V14ZM24 38H40V18H24V22H28V26H24V30H28V34H24V38ZM36 22H32V26H36V22ZM32 30H36V34H32V30Z" fill="#4B86F8"/>
</g>
</svg>
