<svg width="48" height="48" viewBox="0 0 48 48" fill="none" xmlns="http://www.w3.org/2000/svg">
<g id="icon/social/group_24px">
<path id="icon/social/group_24px_2" fill-rule="evenodd" clip-rule="evenodd" d="M18 24C21.86 24 25 20.86 25 17C25 13.14 21.86 10 18 10C14.14 10 11 13.14 11 17C11 20.86 14.14 24 18 24ZM4 34.5C4 29.84 13.32 27.5 18 27.5C22.68 27.5 32 29.84 32 34.5V38H4V34.5ZM18.0001 31.5C14.4201 31.5 10.3601 32.84 8.68009 34H27.3201C25.6401 32.84 21.5801 31.5 18.0001 31.5ZM21 17C21 15.34 19.66 14 18 14C16.34 14 15 15.34 15 17C15 18.66 16.34 20 18 20C19.66 20 21 18.66 21 17ZM32.08 27.62C34.4 29.3 36 31.54 36 34.5V38H44V34.5C44 30.46 37 28.16 32.08 27.62ZM37 17C37 20.86 33.86 24 30 24C28.92 24 27.92 23.74 27 23.3C28.26 21.52 29 19.34 29 17C29 14.66 28.26 12.48 27 10.7C27.92 10.26 28.92 10 30 10C33.86 10 37 13.14 37 17Z" fill="#4B86F8"/>
</g>
</svg>
