<svg width="40" height="40" viewBox="0 0 40 40" fill="none" xmlns="http://www.w3.org/2000/svg">
<g id="icon/content/link_24px">
<path id="icon/content/link_24px_2" fill-rule="evenodd" clip-rule="evenodd" d="M18.3335 25H11.6668C8.91683 25 6.66683 22.75 6.66683 20C6.66683 17.25 8.91683 15 11.6668 15H18.3335V11.6667H11.6668C7.06683 11.6667 3.3335 15.4 3.3335 20C3.3335 24.6 7.06683 28.3334 11.6668 28.3334H18.3335V25ZM28.3335 11.6667H21.6668V15H28.3335C31.0835 15 33.3335 17.25 33.3335 20C33.3335 22.75 31.0835 25 28.3335 25H21.6668V28.3334H28.3335C32.9335 28.3334 36.6668 24.6 36.6668 20C36.6668 15.4 32.9335 11.6667 28.3335 11.6667ZM26.6668 18.3334H13.3335V21.6667H26.6668V18.3334Z" fill="#3275F7"/>
</g>
</svg>
