<svg width="48" height="48" viewBox="0 0 48 48" fill="none" xmlns="http://www.w3.org/2000/svg">
<g id="icon/action/build_24px">
<path id="icon/action/build_24px_2" fill-rule="evenodd" clip-rule="evenodd" d="M27.1517 19.8191L45.3117 37.9791C46.1117 38.7791 46.1117 40.0392 45.3117 40.7991L40.7117 45.3992C39.9317 46.1791 38.6717 46.1791 37.8917 45.3992L19.6717 27.1791C15.0317 28.9191 9.61172 27.9391 5.89172 24.2191C1.29172 19.6391 0.87172 12.4591 4.59172 7.37915L12.2517 15.0391L15.0917 12.2191L7.41172 4.51915C12.5117 0.799149 19.6717 1.21915 24.2717 5.81915C28.0517 9.61915 29.0117 15.1391 27.1517 19.8191ZM20.3916 22.2591L39.3116 41.1791L41.0716 39.3991L22.1716 20.4991C23.0916 19.3191 23.6916 17.9991 23.9316 16.5791C24.4316 13.7991 23.6116 10.8191 21.4516 8.65914C19.5516 6.77914 17.0516 5.89914 14.5716 6.03914L20.7516 12.2191L12.2716 20.6991L6.09164 14.5191C5.95164 16.9991 6.83164 19.5191 8.73164 21.3991C10.8116 23.4791 13.6716 24.2991 16.3916 23.8991C17.8116 23.6991 19.1716 23.1591 20.3916 22.2591Z" fill="#4B86F8"/>
</g>
</svg>
